<svg viewBox="0 0 416.03 86.998" xmlns="http://www.w3.org/2000/svg"><path d="M14.794 53.161c3.8 13.303 18.452 17.787 24.906 19.247-5.974-3.201-16.612-8.563-20.014-20.474s2.953-21.541 6.413-27.123c-4.808 4.298-15.106 15.053-11.305 28.35" fill="#C74F0A"/><path d="M6.895 55.132c2.053 7.19 9.997 11.253 14.599 12.83-3.983-2.431-9.147-8.365-10.703-13.807-1.549-5.421.031-11.989 1.889-16.943-3.169 3.742-7.829 10.758-5.785 17.92" fill="#E45B0C"/><path d="M9.045 64.806c-1.753-2.251-4.308-4.536-5.634-8.813-1.011-3.259-.152-7.038.179-10.211C2.103 48.723-.903 52.693.263 56.788c1.169 4.085 5.949 6.187 8.782 8.018m82.4-30.907c-3.804-13.297-18.449-17.787-24.912-19.25 5.974 3.204 16.615 8.569 20.02 20.48 3.402 11.902-2.956 21.541-6.42 27.123 4.812-4.301 15.109-15.056 11.312-28.353" fill="#C74F0A"/><path d="M99.339 31.928c-2.05-7.187-9.997-11.253-14.596-12.827 3.983 2.427 9.147 8.362 10.699 13.801 1.552 5.421-.028 11.995-1.889 16.94 3.17-3.732 7.83-10.749 5.786-17.914" fill="#E45B0C"/><path d="M97.097 22.279c1.753 2.248 4.311 4.54 5.637 8.81 1.011 3.265.155 7.041-.179 10.211 1.484-2.941 4.496-6.911 3.324-10.999-1.169-4.092-5.946-6.185-8.782-8.022M61.556 73.21c14.175-3.562 18.956-17.308 20.518-23.366-3.42 5.609-9.135 15.588-21.835 18.777-12.691 3.194-22.967-2.774-28.916-6.021 4.585 4.512 16.052 14.175 30.233 10.61" fill="#C74F0A"/><path d="M63.651 80.617c7.666-1.927 11.995-9.379 13.674-13.693-2.591 3.732-8.915 8.578-14.716 10.041-5.776 1.45-12.781-.031-18.059-1.778 3.986 2.972 11.463 7.348 19.101 5.43" fill="#E45B0C"/><path d="M73.942 78.513c-2.4 1.645-4.846 4.045-9.398 5.288-3.476.946-7.505.145-10.885-.17 3.133 1.398 7.366 4.215 11.732 3.12 4.352-1.092 6.591-5.579 8.551-8.238M44.603 13.871c-14.178 3.565-18.959 17.308-20.521 23.363 3.42-5.597 9.135-15.582 21.832-18.777 12.697-3.188 22.97 2.78 28.913 6.024-4.579-4.512-16.046-14.175-30.224-10.61" fill="#C74F0A"/><path d="M42.503 6.465c-7.663 1.927-11.995 9.379-13.671 13.69 2.585-3.726 8.909-8.578 14.71-10.038 5.78-1.45 12.784.031 18.065 1.775-3.991-2.972-11.465-7.347-19.104-5.427" fill="#E45B0C"/><path d="M32.192 8.48c2.4-1.642 4.839-4.042 9.391-5.285 3.479-.946 7.505-.142 10.888.17C49.335 1.967 45.102-.85 40.742.248c-4.357 1.092-6.596 5.576-8.55 8.232M148.77 46.608c-11.336 0-17.713-8.538-17.713-17.744 0-9.203 6.593-17.54 17.768-17.54 4.632 0 7.521.971 10.192 2.557l-2.128 3.018c-2.124-1.382-4.741-2.251-8.173-2.251-8.723 0-13.192 6.751-13.192 14.113 0 7.465 4.305 14.472 13.353 14.472 3.924 0 6.76-1.228 8.884-2.916l1.964 2.863c-1.907 1.638-5.887 3.428-10.955 3.428m32.16-24.083c-1.144-2.863-1.636-4.295-2.236-5.882h-.108c-.6 1.688-1.2 3.275-2.236 5.882l-4.632 11.658h13.792l-4.58-11.658zm-13.9 23.471h-4.196l13.9-34.056h4.141l13.956 34.056h-4.635l-3.324-8.439h-16.516l-3.326 8.439zm34.07 0V11.94h4.25v30.679h14.28v3.377zm26.11-34.056h4.252v34.056h-4.252z" fill="#C74F0A"/><path d="M249.72 46.608c-5.56 0-8.992-2.301-10.304-3.476l2.183-2.863c.816.714 3.432 3.015 8.284 3.015 4.468 0 7.412-2.758 7.412-5.776 0-4.144-4.144-5.882-8.34-7.824-4.416-2.047-8.448-4.246-8.448-9.667 0-5.572 5.016-8.693 10.573-8.693 5.399 0 8.343 1.84 9.54 2.712l-2.069 2.966c-1.255-.922-3.708-2.353-7.524-2.353-3.596 0-6.324 2.047-6.324 5.164 0 3.377 2.944 4.96 6.543 6.546 4.793 2.146 10.353 4.45 10.353 11.095.001 5.372-4.848 9.154-11.879 9.154m28.4-31.294h-4.413v13.551h4.252c6.376 0 8.992-2.452 8.992-6.955.001-3.884-2.396-6.596-8.831-6.596m-.16 16.927h-4.252v13.755h-4.252V11.94h9.104c7.304 0 12.756 3.272 12.756 9.818-.001 6.698-4.908 10.483-13.356 10.483m45.84 13.755v-16.26h-20.55v16.26H299V11.94h4.25v14.419h20.55V11.94h4.25v34.056zm14.72 0V11.94h18.64v3.374h-14.39v10.943h12.64v3.374h-12.64v12.988h14.77v3.377zm36.79-30.682h-5.121v11.711h5.449c5.396 0 7.848-2.146 7.848-5.931s-2.616-5.78-8.176-5.78m10.14 30.682l-7.304-9.664c-4.252-5.625-4.904-6.036-7.36-6.036h-.597v15.7h-4.255V11.94h9.868c7.576 0 12.045 3.324 12.045 9.051 0 5.674-4.413 8.59-10.192 8.897v.102c.708.461 1.691 1.484 3.816 4.246l8.992 11.76h-5.013zm11.56-34.056v34.056h19.02v-3.374h-14.77V29.631h12.64v-3.374h-12.64V15.314h14.39V11.94zm-258.9 63.731c-3.766 0-5.452-1.88-5.452-5v-7.746h2.267v7.539c0 2.332.962 3.439 3.244 3.439 2.165 0 3.126-1.277 3.126-3.231v-7.746h2.106V70.5c0 3.253-1.723 5.171-5.291 5.171m19.1-.227l-5.814-7.839a23.61 23.61 0 01-1.181-1.75h-.04c0 .037.08.81.08 1.525v8.065h-2.066V62.923h2.267l5.47 7.369c.721.977 1.302 1.936 1.342 1.995h.04c0-.077-.08-.884-.08-1.843v-7.521h2.066v12.521h-2.084zm7.03-12.521h2.267v12.521h-2.267zm13.13 12.521h-2.165l-5.152-12.521h2.446l3.086 8.009c.362.959.742 2.124.742 2.124h.04s.362-1.166.721-2.124l2.987-8.009h2.264l-4.969 12.521zm8.35 0V62.923h7.32v1.766h-5.07v3.349h4.47v1.692h-4.47v3.949h5.21v1.765zm15.51-10.848h-1.623v3.834h1.744c1.722 0 2.505-.696 2.505-1.936 0-1.239-.82-1.898-2.626-1.898m3.368 10.848l-2.545-3.553c-1.262-1.747-1.503-1.88-2.264-1.88h-.182v5.433h-2.264V62.923h4.069c2.984 0 4.71 1.24 4.71 3.479 0 2.066-1.543 3.12-3.389 3.327v.037c.322.207.724.659 1.484 1.691l2.925 3.986h-2.544zm8.922.227c-2.106 0-3.448-.81-3.967-1.262l1.02-1.484c.3.226 1.283 1.014 2.947 1.014 1.481 0 2.384-.807 2.384-1.747 0-1.296-1.463-1.769-3.006-2.483-1.645-.77-2.987-1.633-2.987-3.664 0-2.106 1.883-3.349 4.128-3.349 2.084 0 3.228.68 3.729 1.036l-.983 1.503a4.91 4.91 0 00-2.666-.807c-1.203 0-2.022.581-2.022 1.577 0 1.092 1.061 1.525 2.424 2.109 1.763.77 3.609 1.617 3.609 3.986.001 2.142-1.805 3.571-4.61 3.571m8.7-12.748h2.264v12.521h-2.264zm11.86 1.767v10.755h-2.29V64.69h-3.73v-1.766h9.72v1.766zm12.74 6.016v4.738h-2.27v-4.738l-4.45-7.783h2.52l3.15 5.81h.03l3.14-5.81h2.2zm19.11-6.279c-2.907 0-4.388 2.162-4.388 4.719s1.441 4.793 4.329 4.793c2.925 0 4.366-2.199 4.366-4.737 0-2.558-1.401-4.775-4.307-4.775m0 11.244c-4.311 0-6.775-3.064-6.775-6.469 0-3.42 2.406-6.506 6.717-6.506 4.329 0 6.754 3.049 6.754 6.451-.002 3.419-2.389 6.524-6.696 6.524m12.99-10.981v3.479h4.47v1.71h-4.47v5.566h-2.27V62.924h7.36v1.766zm20.38 10.981c-4.388 0-6.695-3.12-6.695-6.506 0-3.405 2.387-6.469 6.735-6.469 1.722 0 2.867.359 3.89.98l-1.064 1.559c-.761-.47-1.645-.77-2.885-.77-2.808 0-4.289 2.143-4.289 4.626 0 2.557 1.422 4.793 4.348 4.793 1.444 0 2.406-.451 3.126-.996l.983 1.484c-.701.603-2.244 1.299-4.149 1.299m13.3-8.217c-.399-1.051-.541-1.503-.761-2.162h-.04c-.22.677-.362 1.126-.764 2.162l-1.379 3.572h4.329l-1.385-3.572zm-4.63 7.99h-2.264l5.09-12.521h2.183l5.192 12.521h-2.465l-1.042-2.687h-5.653l-1.041 2.687zm13.63 0V62.923h2.26v10.793h5.09v1.728zm11.32-12.521h2.267v12.521h-2.267zm9.56 1.767v3.479h4.47v1.71h-4.47v5.566h-2.27V62.924h7.36v1.766zm14.88-.263c-2.907 0-4.388 2.162-4.388 4.719s1.441 4.793 4.329 4.793c2.922 0 4.366-2.199 4.366-4.737.001-2.558-1.4-4.775-4.307-4.775m0 11.244c-4.311 0-6.775-3.064-6.775-6.469 0-3.42 2.406-6.506 6.717-6.506 4.329 0 6.754 3.049 6.754 6.451-.001 3.419-2.388 6.524-6.696 6.524m14.61-11.075h-1.623v3.834h1.744c1.725 0 2.505-.696 2.505-1.936-.001-1.239-.82-1.898-2.626-1.898m3.368 10.848l-2.545-3.553c-1.262-1.747-1.503-1.88-2.264-1.88h-.182v5.433h-2.264V62.923h4.066c2.987 0 4.713 1.24 4.713 3.479 0 2.066-1.543 3.12-3.389 3.327v.037c.322.207.724.659 1.484 1.691l2.925 3.986h-2.544zm14.972 0l-5.81-7.839a24.164 24.164 0 01-1.184-1.75h-.04c0 .037.08.81.08 1.525v8.065h-2.063V62.923h2.264l5.47 7.369c.724.977 1.305 1.936 1.345 1.995h.037c0-.077-.077-.884-.077-1.843v-7.521h2.063v12.521h-2.085zm7.03-12.521h2.267v12.521h-2.267zm12.76 4.531c-.402-1.051-.541-1.503-.761-2.162h-.04c-.22.677-.362 1.126-.761 2.162l-1.382 3.572h4.329l-1.385-3.572zm-4.629 7.99h-2.264l5.09-12.521h2.183l5.192 12.521h-2.465l-1.042-2.687h-5.653l-1.041 2.687z" fill="#7D7E80"/></svg>