<svg xmlns="http://www.w3.org/2000/svg" viewBox="-328 288.8 133.6 37.2"><path d="M-286.7 314.3c-.5.2-1.6.5-2.9.5-3.1 0-5.4-1.8-5.4-5.2 0-3.2 2.3-5.4 5.7-5.4 1.4 0 2.2.3 2.6.5l-.3 1.1c-.5-.2-1.3-.4-2.2-.4-2.6 0-4.3 1.5-4.3 4.2 0 2.5 1.5 4.1 4.2 4.1.9 0 1.7-.2 2.3-.4l.3 1zm3.5-2.9l-1.1 3.2h-1.5l3.7-10.3h1.7l3.7 10.3h-1.5l-1.2-3.2h-3.8zm3.6-1l-1.1-3c-.2-.7-.4-1.3-.6-1.9-.2.6-.3 1.2-.6 1.9l-1.1 3h3.4zm4.6-6h1.4v9.2h4.7v1.1h-6.1v-10.3zm9.1 0v10.3h-1.4v-10.3h1.4z" fill="#F36F24"/><path d="M-262.1 313c.6.4 1.6.7 2.5.7 1.4 0 2.3-.7 2.3-1.8 0-1-.6-1.5-2.1-2-1.8-.6-2.9-1.5-2.9-2.9 0-1.6 1.4-2.8 3.5-2.8 1.1 0 1.9.2 2.4.5l-.4 1.1c-.4-.2-1.1-.5-2.1-.5-1.5 0-2.1.8-2.1 1.5 0 1 .7 1.4 2.2 2 1.9.7 2.8 1.5 2.8 3 0 1.6-1.3 3-3.8 3-1.1 0-2.2-.3-2.8-.7l.5-1.1zm8.2-8.5c.7-.1 1.6-.2 2.7-.2 1.4 0 2.4.3 3.1.9.6.5 1 1.2 1 2.1 0 .9-.3 1.7-.8 2.2-.7.7-2 1.1-3.3 1.1-.4 0-.8 0-1.1-.1v4.1h-1.4l-.2-10.1zm1.4 5c.3.1.7.1 1.2.1 1.7 0 2.7-.8 2.7-2.2 0-1.4-1-2-2.6-2-.6 0-1.1 0-1.3.1v4zm8.9-5.1v4.3h5.3v-4.3h1.4v10.3h-1.4v-4.8h-5.3v4.8h-1.4v-10.3h1.4zm14.9 5.4h-4.3v3.7h4.7v1.1h-6.2v-10.3h5.9v1.1h-4.5v3.2h4.3c.1.1.1 1.2.1 1.2zm2.3-5.3c.7-.1 1.7-.2 2.7-.2 1.5 0 2.5.3 3.2.8.6.5.9 1.2.9 2 0 1.4-.9 2.3-2.1 2.6.8.3 1.3 1 1.6 2.1.4 1.4.6 2.4.8 2.8h-1.5c-.2-.3-.4-1.2-.7-2.5-.3-1.4-.9-2-2.2-2h-1.3v4.5h-1.4v-10.1zm1.4 4.7h1.4c1.5 0 2.5-.8 2.5-2 0-1.3-1-1.9-2.5-1.9-.7 0-1.2.1-1.4.1v3.8zm13 .6h-4.3v3.7h4.7v1.1h-6.2v-10.3h5.9v1.1h-4.5v3.2h4.3c.1.1.1 1.2.1 1.2z" fill="#7C7E7F"/><path fill="#F36F24" d="M-323.6 304.7c1.1 4 5.5 5.3 7.4 5.7-1.8-1-5-2.6-6-6.1-1-3.6.9-6.4 1.9-8.1-1.3 1.3-4.4 4.5-3.3 8.5"/><path fill="#F78F2F" d="M-325.9 305.3c.6 2.1 3 3.4 4.4 3.8-1.2-.7-2.7-2.5-3.2-4.1-.5-1.6 0-3.6.6-5.1-1.1 1.1-2.5 3.2-1.8 5.4"/><path fill="#F36F24" d="M-325.3 308.2c-.5-.7-1.3-1.4-1.7-2.6-.3-1 0-2.1.1-3-.4.9-1.3 2.1-1 3.3.3 1.1 1.8 1.7 2.6 2.3m24.6-9.3c-1.1-4-5.5-5.3-7.4-5.7 1.8 1 5 2.6 6 6.1 1 3.5-.9 6.4-1.9 8.1 1.3-1.3 4.4-4.5 3.3-8.5"/><path fill="#F78F2F" d="M-298.4 298.4c-.6-2.1-3-3.4-4.4-3.8 1.2.7 2.7 2.5 3.2 4.1.5 1.6 0 3.6-.6 5.1 1-1.2 2.4-3.3 1.8-5.4"/><path fill="#F36F24" d="M-299 295.5c.5.7 1.3 1.4 1.7 2.6.3 1 0 2.1-.1 3 .4-.9 1.3-2.1 1-3.3-.4-1.2-1.8-1.8-2.6-2.3m-10.6 15.2c4.2-1.1 5.7-5.2 6.1-7-1 1.7-2.7 4.6-6.5 5.6s-6.8-.8-8.6-1.8c1.3 1.3 4.7 4.2 9 3.2"/><path fill="#F78F2F" d="M-309 312.9c2.3-.6 3.6-2.8 4.1-4.1-.8 1.1-2.7 2.6-4.4 3-1.7.4-3.8 0-5.4-.5 1.2.8 3.4 2.1 5.7 1.6"/><path fill="#F36F24" d="M-306 312.2c-.7.5-1.4 1.2-2.8 1.6-1 .3-2.2 0-3.2-.1.9.4 2.2 1.3 3.5.9 1.3-.2 2-1.6 2.5-2.4m-8.7-19.2c-4.2 1.1-5.7 5.2-6.1 7 1-1.7 2.7-4.6 6.5-5.6s6.8.8 8.6 1.8c-1.4-1.4-4.8-4.3-9-3.2"/><path fill="#F78F2F" d="M-315.3 290.8c-2.3.6-3.6 2.8-4.1 4.1.8-1.1 2.7-2.6 4.4-3 1.7-.4 3.8 0 5.4.5-1.2-.9-3.4-2.2-5.7-1.6"/><path fill="#F36F24" d="M-318.4 291.4c.7-.5 1.4-1.2 2.8-1.6 1-.3 2.2 0 3.2.1-.9-.4-2.2-1.3-3.5-.9-1.2.2-1.9 1.6-2.5 2.4"/><path d="M-294.6 324.5v-2.3h.6v2.2c0 .8.3 1.1 1 1.1s1-.4 1-1.1v-2.3h.6v2.2c0 1-.5 1.7-1.6 1.7-1.1.1-1.6-.6-1.6-1.5m4.5-2.3h.6l1.7 2.3.4.6v-2.9h.6v3.8h-.6l-1.8-2.4c-.2-.3-.3-.6-.3-.6v3h-.6v-3.8zm4.7 0h.6v3.8h-.6zm1.6 0h.7l1 2.5c.1.3.2.6.2.7 0 0 .1-.4.2-.7l.9-2.5h.6l-1.5 3.8h-.6l-1.5-3.8zm4.6 0h2.3v.5h-1.7v1.1h1.5v.5h-1.5v1.2h1.7v.5h-2.3zm3.5 0h1.2c.9 0 1.4.4 1.4 1.1 0 .6-.5.9-1 1l.5.5.9 1.2h-.7l-.8-1.1c-.4-.5-.5-.6-.7-.6h-.1v1.7h-.6c-.1 0-.1-3.8-.1-3.8zm1.2 1.7c.5 0 .8-.2.8-.6 0-.4-.3-.6-.8-.6h-.5v1.2h.5zm2.4 1.8l.3-.5c.1.1.4.3.9.3s.7-.2.7-.5c0-.4-.4-.5-.9-.8-.5-.2-.9-.5-.9-1.1 0-.7.6-1 1.2-1s.9.2 1.1.3l-.3.5c-.1-.1-.4-.2-.8-.2s-.6.2-.6.5c0 .4.3.5.7.7.5.2 1.1.5 1.1 1.2s-.5 1.1-1.4 1.1c-.6-.1-1-.4-1.1-.5m3.7-3.5h.6v3.8h-.6zm2.7.5h-1.1v-.5h2.9v.5h-1.1v3.3h-.7zm3.8 1.9l-1.4-2.4h.7l1 1.8 1-1.8h.6l-1.3 2.4v1.4h-.6zm4.4-.5c0-1 .7-2 2-2s2 .9 2 2c0 1-.7 2-2 2-1.2 0-2-1-2-2m3.3 0c0-.8-.4-1.5-1.3-1.5s-1.3.7-1.3 1.4c0 .8.4 1.5 1.3 1.5s1.3-.6 1.3-1.4m1.8-1.9h2.3v.5h-1.6v1.1h1.4v.5h-1.4v1.7h-.7zm5 1.9c0-1.1.7-2 2-2 .5 0 .8.1 1.1.3l-.3.5c-.2-.1-.5-.2-.9-.2-.9 0-1.3.6-1.3 1.4 0 .8.4 1.5 1.3 1.5.4 0 .7-.1.9-.3l.3.5c-.2.2-.7.4-1.2.4-1.2-.1-1.9-1.1-1.9-2.1m5.4-1.9h.6l1.5 3.8h-.7l-.3-.8h-1.8l-.3.8h-.6l1.6-3.8zm.9 2.5l-.5-1.2c-.1-.3-.2-.7-.2-.7s-.1.4-.2.7l-.4 1.2h1.3zm2.2-2.5h.6v3.3h1.6v.5h-2.2zm3.3 0h.6v3.8h-.6zm2 0h2.3v.5h-1.6v1.1h1.4v.5h-1.4v1.7h-.7zm3.2 1.9c0-1 .7-2 2-2s2 .9 2 2c0 1-.7 2-2 2s-2-1-2-2m3.3 0c0-.8-.4-1.5-1.3-1.5s-1.3.7-1.3 1.4c0 .8.4 1.5 1.3 1.5s1.3-.6 1.3-1.4m1.8-1.9h1.2c.9 0 1.4.4 1.4 1.1 0 .6-.5.9-1 1 .1.1.2.2.4.5l.9 1.2h-.7l-.8-1.1c-.4-.5-.5-.6-.7-.6h-.1v1.7h-.6v-3.8zm1.2 1.7c.5 0 .8-.2.8-.6 0-.4-.3-.6-.8-.6h-.5v1.2h.5zm2.6-1.7h.6l1.7 2.3.4.6v-2.9h.6v3.8h-.6l-1.8-2.4c-.2-.3-.3-.6-.3-.6v3h-.6v-3.8zm4.7 0h.6v3.8h-.6zm3.1 0h.6l1.5 3.8h-.7l-.3-.8h-1.8l-.3.8h-.6l1.6-3.8zm1 2.5l-.4-1.2c-.1-.3-.2-.7-.2-.7s-.1.4-.2.7l-.4 1.2h1.2z" fill="#7E7D7E"/></svg>