<?xml version="1.0" encoding="utf-8"?>
<!-- Generator: Adobe Illustrator 18.1.1, SVG Export Plug-In . SVG Version: 6.00 Build 0)  -->
<svg version="1.1" id="Layer_1" xmlns="http://www.w3.org/2000/svg" xmlns:xlink="http://www.w3.org/1999/xlink" x="0px" y="0px"
	 viewBox="-328 288.8 133.6 37.2" enable-background="new -328 288.8 133.6 37.2" xml:space="preserve">
<g>
	<path fill="#F36F24" d="M-280.7,302.3c-0.5,0.2-1.6,0.5-2.9,0.5c-3.1,0-5.4-1.8-5.4-5.2c0-3.2,2.3-5.4,5.7-5.4
		c1.4,0,2.2,0.3,2.6,0.5l-0.3,1.1c-0.5-0.2-1.3-0.4-2.2-0.4c-2.6,0-4.3,1.5-4.3,4.2c0,2.5,1.5,4.1,4.2,4.1c0.9,0,1.7-0.2,2.3-0.4
		L-280.7,302.3z"/>
	<path fill="#F36F24" d="M-277.2,299.4l-1.1,3.2h-1.5l3.7-10.3h1.7l3.7,10.3h-1.5l-1.2-3.2H-283.2z M-273.6,298.4l-1.1-3
		c-0.2-0.7-0.4-1.3-0.6-1.9h0c-0.2,0.6-0.3,1.2-0.6,1.9l-1.1,3H-279.6z"/>
	<path fill="#F36F24" d="M-269,292.4h1.4v9.2h4.7v1.1h-6.1C-269,302.7-269,292.4-269,292.4z"/>
	<path fill="#F36F24" d="M-259.9,292.4v10.3h-1.4v-10.3H-265.9z"/>
</g>
<g>
	<path fill="#7C7E7F" d="M-256.1,301c0.6,0.4,1.6,0.7,2.5,0.7c1.4,0,2.3-0.7,2.3-1.8c0-1-0.6-1.5-2.1-2c-1.8-0.6-2.9-1.5-2.9-2.9
		c0-1.6,1.4-2.8,3.5-2.8c1.1,0,1.9,0.2,2.4,0.5l-0.4,1.1c-0.4-0.2-1.1-0.5-2.1-0.5c-1.5,0-2.1,0.8-2.1,1.5c0,1,0.7,1.4,2.2,2
		c1.9,0.7,2.8,1.5,2.8,3c0,1.6-1.3,3-3.8,3c-1.1,0-2.2-0.3-2.8-0.7L-256.1,301z"/>
	<path fill="#7C7E7F" d="M-247.9,292.5c0.7-0.1,1.6-0.2,2.7-0.2c1.4,0,2.4,0.3,3.1,0.9c0.6,0.5,1,1.2,1,2.1c0,0.9-0.3,1.7-0.8,2.2
		c-0.7,0.7-2,1.1-3.3,1.1c-0.4,0-0.8,0-1.1-0.1v4.1h-1.4L-247.9,292.5L-247.9,292.5z M-246.5,297.5c0.3,0.1,0.7,0.1,1.2,0.1
		c1.7,0,2.7-0.8,2.7-2.2c0-1.4-1-2-2.6-2c-0.6,0-1.1,0-1.3,0.1V297.5z"/>
</g>
<g>
	<path fill="#7C7E7F" d="M-237.6,292.4v4.3h5.3v-4.3h1.4v10.3h-1.4v-4.8h-5.3v4.8h-1.4v-10.3H-243.6z"/>
	<path fill="#7C7E7F" d="M-222.7,297.8h-4.3v3.7h4.7v1.1h-6.2v-10.3h5.9v1.1h-4.5v3.2h4.3C-222.7,296.7-222.7,297.8-222.7,297.8z"/>
	<path fill="#7C7E7F" d="M-220.4,292.5c0.7-0.1,1.7-0.2,2.7-0.2c1.5,0,2.5,0.3,3.2,0.8c0.6,0.5,0.9,1.2,0.9,2c0,1.4-0.9,2.3-2.1,2.6
		v0c0.8,0.3,1.3,1,1.6,2.1c0.4,1.4,0.6,2.4,0.8,2.8h-1.5c-0.2-0.3-0.4-1.2-0.7-2.5c-0.3-1.4-0.9-2-2.2-2h-1.3v4.5h-1.4L-220.4,292.5
		L-220.4,292.5z M-219,297.2h1.4c1.5,0,2.5-0.8,2.5-2c0-1.3-1-1.9-2.5-1.9c-0.7,0-1.2,0.1-1.4,0.1V297.2z"/>
	<path fill="#7C7E7F" d="M-206,297.8h-4.3v3.7h4.7v1.1h-6.2v-10.3h5.9v1.1h-4.5v3.2h4.3C-206,296.7-206,297.8-206,297.8z"/>
</g>
<path fill="#F36F24" d="M-323.6,304.7c1.1,4,5.5,5.3,7.4,5.7c-1.8-1-5-2.6-6-6.1c-1-3.6,0.9-6.4,1.9-8.1
	C-321.6,297.5-324.7,300.7-323.6,304.7"/>
<path fill="#F78F2F" d="M-325.9,305.3c0.6,2.1,3,3.4,4.4,3.8c-1.2-0.7-2.7-2.5-3.2-4.1c-0.5-1.6,0-3.6,0.6-5.1
	C-325.2,301-326.6,303.1-325.9,305.3"/>
<path fill="#F36F24" d="M-325.3,308.2c-0.5-0.7-1.3-1.4-1.7-2.6c-0.3-1,0-2.1,0.1-3c-0.4,0.9-1.3,2.1-1,3.3
	C-327.6,307-326.1,307.6-325.3,308.2"/>
<path fill="#F36F24" d="M-300.7,298.9c-1.1-4-5.5-5.3-7.4-5.7c1.8,1,5,2.6,6,6.1c1,3.5-0.9,6.4-1.9,8.1
	C-302.7,306.1-299.6,302.9-300.7,298.9"/>
<path fill="#F78F2F" d="M-298.4,298.4c-0.6-2.1-3-3.4-4.4-3.8c1.2,0.7,2.7,2.5,3.2,4.1c0.5,1.6,0,3.6-0.6,5.1
	C-299.2,302.6-297.8,300.5-298.4,298.4"/>
<path fill="#F36F24" d="M-299,295.5c0.5,0.7,1.3,1.4,1.7,2.6c0.3,1,0,2.1-0.1,3c0.4-0.9,1.3-2.1,1-3.3
	C-296.8,296.6-298.2,296-299,295.5"/>
<path fill="#F36F24" d="M-309.6,310.7c4.2-1.1,5.7-5.2,6.1-7c-1,1.7-2.7,4.6-6.5,5.6c-3.8,1-6.8-0.8-8.6-1.8
	C-317.3,308.8-313.9,311.7-309.6,310.7"/>
<path fill="#F78F2F" d="M-309,312.9c2.3-0.6,3.6-2.8,4.1-4.1c-0.8,1.1-2.7,2.6-4.4,3c-1.7,0.4-3.8,0-5.4-0.5
	C-313.5,312.1-311.3,313.4-309,312.9"/>
<path fill="#F36F24" d="M-306,312.2c-0.7,0.5-1.4,1.2-2.8,1.6c-1,0.3-2.2,0-3.2-0.1c0.9,0.4,2.2,1.3,3.5,0.9
	C-307.2,314.4-306.5,313-306,312.2"/>
<path fill="#F36F24" d="M-314.7,293c-4.2,1.1-5.7,5.2-6.1,7c1-1.7,2.7-4.6,6.5-5.6c3.8-1,6.8,0.8,8.6,1.8
	C-307.1,294.8-310.5,291.9-314.7,293"/>
<path fill="#F78F2F" d="M-315.3,290.8c-2.3,0.6-3.6,2.8-4.1,4.1c0.8-1.1,2.7-2.6,4.4-3c1.7-0.4,3.8,0,5.4,0.5
	C-310.8,291.5-313,290.2-315.3,290.8"/>
<path fill="#F36F24" d="M-318.4,291.4c0.7-0.5,1.4-1.2,2.8-1.6c1-0.3,2.2,0,3.2,0.1c-0.9-0.4-2.2-1.3-3.5-0.9
	C-317.1,289.2-317.8,290.6-318.4,291.4"/>
<g>
	<path fill="#7E7D7E" d="M-288.6,310.5v-2.3h0.6v2.2c0,0.8,0.3,1.1,1,1.1c0.7,0,1-0.4,1-1.1v-2.3h0.6v2.2c0,1-0.5,1.7-1.6,1.7
		C-288.1,312.1-288.6,311.4-288.6,310.5"/>
	<path fill="#7E7D7E" d="M-284.1,308.2h0.6l1.7,2.3c0.2,0.3,0.4,0.6,0.4,0.6h0c0,0,0-0.3,0-0.6v-2.3h0.6v3.8h-0.6l-1.8-2.4
		c-0.2-0.3-0.3-0.6-0.3-0.6h0c0,0,0,0.3,0,0.5v2.5h-0.6V308.2z"/>
	<rect x="-279.4" y="308.2" fill="#7E7D7E" width="0.6" height="3.8"/>
	<path fill="#7E7D7E" d="M-277.8,308.2h0.7l1,2.5c0.1,0.3,0.2,0.6,0.2,0.7h0c0,0,0.1-0.4,0.2-0.7l0.9-2.5h0.6l-1.5,3.8h-0.6
		L-277.8,308.2z"/>
	<polygon fill="#7E7D7E" points="-273.2,308.2 -270.9,308.2 -270.9,308.7 -272.6,308.7 -272.6,309.8 -271.1,309.8 -271.1,310.3
		-272.6,310.3 -272.6,311.5 -270.9,311.5 -270.9,312 -273.2,312 	"/>
	<path fill="#7E7D7E" d="M-269.7,308.2h1.2c0.9,0,1.4,0.4,1.4,1.1c0,0.6-0.5,0.9-1,1v0c0.1,0.1,0.2,0.2,0.5,0.5l0.9,1.2h-0.7
		l-0.8-1.1c-0.4-0.5-0.5-0.6-0.7-0.6h-0.1v1.7h-0.6C-269.7,312-269.7,308.2-269.7,308.2z M-268.5,309.9c0.5,0,0.8-0.2,0.8-0.6
		c0-0.4-0.3-0.6-0.8-0.6h-0.5v1.2C-269,309.9-268.5,309.9-268.5,309.9z"/>
	<path fill="#7E7D7E" d="M-266.1,311.7l0.3-0.5c0.1,0.1,0.4,0.3,0.9,0.3c0.5,0,0.7-0.2,0.7-0.5c0-0.4-0.4-0.5-0.9-0.8
		c-0.5-0.2-0.9-0.5-0.9-1.1c0-0.7,0.6-1,1.2-1c0.6,0,0.9,0.2,1.1,0.3l-0.3,0.5c-0.1-0.1-0.4-0.2-0.8-0.2c-0.4,0-0.6,0.2-0.6,0.5
		c0,0.4,0.3,0.5,0.7,0.7c0.5,0.2,1.1,0.5,1.1,1.2c0,0.7-0.5,1.1-1.4,1.1C-265.6,312.1-266,311.8-266.1,311.7"/>
	<rect x="-262.4" y="308.2" fill="#7E7D7E" width="0.6" height="3.8"/>
	<polygon fill="#7E7D7E" points="-259.7,308.7 -260.8,308.7 -260.8,308.2 -257.9,308.2 -257.9,308.7 -259,308.7 -259,312
		-259.7,312 	"/>
	<polygon fill="#7E7D7E" points="-255.9,310.6 -257.3,308.2 -256.6,308.2 -255.6,310 -255.6,310 -254.6,308.2 -254,308.2
		-255.3,310.6 -255.3,312 -255.9,312 	"/>
	<path fill="#7E7D7E" d="M-251.5,310.1c0-1,0.7-2,2-2c1.3,0,2,0.9,2,2c0,1-0.7,2-2,2C-250.7,312.1-251.5,311.1-251.5,310.1
		 M-248.2,310.1c0-0.8-0.4-1.5-1.3-1.5c-0.9,0-1.3,0.7-1.3,1.4c0,0.8,0.4,1.5,1.3,1.5C-248.6,311.5-248.2,310.9-248.2,310.1"/>
	<polygon fill="#7E7D7E" points="-246.4,308.2 -244.1,308.2 -244.1,308.7 -245.7,308.7 -245.7,309.8 -244.3,309.8 -244.3,310.3
		-245.7,310.3 -245.7,312 -246.4,312 	"/>
	<path fill="#7E7D7E" d="M-241.4,310.1c0-1.1,0.7-2,2-2c0.5,0,0.8,0.1,1.1,0.3l-0.3,0.5c-0.2-0.1-0.5-0.2-0.9-0.2
		c-0.9,0-1.3,0.6-1.3,1.4c0,0.8,0.4,1.5,1.3,1.5c0.4,0,0.7-0.1,0.9-0.3l0.3,0.5c-0.2,0.2-0.7,0.4-1.2,0.4
		C-240.7,312.1-241.4,311.1-241.4,310.1"/>
	<path fill="#7E7D7E" d="M-236,308.2h0.6l1.5,3.8h-0.7l-0.3-0.8h-1.8l-0.3,0.8h-0.6L-236,308.2z M-235.1,310.7l-0.5-1.2
		c-0.1-0.3-0.2-0.7-0.2-0.7h0c0,0-0.1,0.4-0.2,0.7l-0.4,1.2H-241.1z"/>
	<polygon fill="#7E7D7E" points="-232.9,308.2 -232.3,308.2 -232.3,311.5 -230.7,311.5 -230.7,312 -232.9,312 	"/>
	<rect x="-229.6" y="308.2" fill="#7E7D7E" width="0.6" height="3.8"/>
	<polygon fill="#7E7D7E" points="-227.6,308.2 -225.3,308.2 -225.3,308.7 -226.9,308.7 -226.9,309.8 -225.5,309.8 -225.5,310.3
		-226.9,310.3 -226.9,312 -227.6,312 	"/>
	<path fill="#7E7D7E" d="M-224.4,310.1c0-1,0.7-2,2-2s2,0.9,2,2c0,1-0.7,2-2,2C-223.7,312.1-224.4,311.1-224.4,310.1 M-221.1,310.1
		c0-0.8-0.4-1.5-1.3-1.5c-0.9,0-1.3,0.7-1.3,1.4c0,0.8,0.4,1.5,1.3,1.5S-221.1,310.9-221.1,310.1"/>
	<path fill="#7E7D7E" d="M-219.3,308.2h1.2c0.9,0,1.4,0.4,1.4,1.1c0,0.6-0.5,0.9-1,1v0c0.1,0.1,0.2,0.2,0.4,0.5l0.9,1.2h-0.7
		l-0.8-1.1c-0.4-0.5-0.5-0.6-0.7-0.6h-0.1v1.7h-0.6L-219.3,308.2L-219.3,308.2z M-218.1,309.9c0.5,0,0.8-0.2,0.8-0.6
		c0-0.4-0.3-0.6-0.8-0.6h-0.5v1.2C-218.7,309.9-218.1,309.9-218.1,309.9z"/>
	<path fill="#7E7D7E" d="M-215.5,308.2h0.6l1.7,2.3c0.2,0.3,0.4,0.6,0.4,0.6h0c0,0,0-0.3,0-0.6v-2.3h0.6v3.8h-0.6l-1.8-2.4
		c-0.2-0.3-0.3-0.6-0.3-0.6h0c0,0,0,0.3,0,0.5v2.5h-0.6L-215.5,308.2L-215.5,308.2z"/>
	<rect x="-210.8" y="308.2" fill="#7E7D7E" width="0.6" height="3.8"/>
	<path fill="#7E7D7E" d="M-207.7,308.2h0.6l1.5,3.8h-0.7l-0.3-0.8h-1.8l-0.3,0.8h-0.6L-207.7,308.2z M-206.7,310.7l-0.4-1.2
		c-0.1-0.3-0.2-0.7-0.2-0.7h0c0,0-0.1,0.4-0.2,0.7l-0.4,1.2H-212.7z"/>
</g>
</svg>
