<?xml version="1.0" encoding="UTF-8"?>
<svg enable-background="new 0 0 416.03 86.998" version="1.1" viewBox="0 0 416.03 86.998" xml:space="preserve" xmlns="http://www.w3.org/2000/svg">
	<path d="m14.794 53.161c3.8 13.303 18.452 17.787 24.906 19.247-5.974-3.201-16.612-8.563-20.014-20.474s2.953-21.541 6.413-27.123c-4.808 4.298-15.106 15.053-11.305 28.35" fill="#F37024"/>
	<path d="m6.895 55.132c2.053 7.19 9.997 11.253 14.599 12.83-3.983-2.431-9.147-8.365-10.703-13.807-1.549-5.421 0.031-11.989 1.889-16.943-3.169 3.742-7.829 10.758-5.785 17.92" fill="#F78F2F"/>
	<path d="m9.045 64.806c-1.753-2.251-4.308-4.536-5.634-8.813-1.011-3.259-0.152-7.038 0.179-10.211-1.487 2.941-4.493 6.911-3.327 11.006 1.169 4.085 5.949 6.187 8.782 8.018" fill="#F37024"/>
	<path d="m91.445 33.899c-3.804-13.297-18.449-17.787-24.912-19.25 5.974 3.204 16.615 8.569 20.02 20.48 3.402 11.902-2.956 21.541-6.42 27.123 4.812-4.301 15.109-15.056 11.312-28.353" fill="#F37024"/>
	<path d="m99.339 31.928c-2.05-7.187-9.997-11.253-14.596-12.827 3.983 2.427 9.147 8.362 10.699 13.801 1.552 5.421-0.028 11.995-1.889 16.94 3.17-3.732 7.83-10.749 5.786-17.914" fill="#F78F2F"/>
	<path d="m97.097 22.279c1.753 2.248 4.311 4.54 5.637 8.81 1.011 3.265 0.155 7.041-0.179 10.211 1.484-2.941 4.496-6.911 3.324-10.999-1.169-4.092-5.946-6.185-8.782-8.022" fill="#F37024"/>
	<path d="m61.556 73.21c14.175-3.562 18.956-17.308 20.518-23.366-3.42 5.609-9.135 15.588-21.835 18.777-12.691 3.194-22.967-2.774-28.916-6.021 4.585 4.512 16.052 14.175 30.233 10.61" fill="#F37024"/>
	<path d="m63.651 80.617c7.666-1.927 11.995-9.379 13.674-13.693-2.591 3.732-8.915 8.578-14.716 10.041-5.776 1.45-12.781-0.031-18.059-1.778 3.986 2.972 11.463 7.348 19.101 5.43" fill="#F78F2F"/>
	<path d="m73.942 78.513c-2.4 1.645-4.846 4.045-9.398 5.288-3.476 0.946-7.505 0.145-10.885-0.17 3.133 1.398 7.366 4.215 11.732 3.12 4.352-1.092 6.591-5.579 8.551-8.238" fill="#F37024"/>
	<path d="m44.603 13.871c-14.178 3.565-18.959 17.308-20.521 23.363 3.42-5.597 9.135-15.582 21.832-18.777 12.697-3.188 22.97 2.78 28.913 6.024-4.579-4.512-16.046-14.175-30.224-10.61" fill="#F37024"/>
	<path d="m42.503 6.465c-7.663 1.927-11.995 9.379-13.671 13.69 2.585-3.726 8.909-8.578 14.71-10.038 5.78-1.45 12.784 0.031 18.065 1.775-3.991-2.972-11.465-7.347-19.104-5.427" fill="#F78F2F"/>
	<path d="m32.192 8.48c2.4-1.642 4.839-4.042 9.391-5.285 3.479-0.946 7.505-0.142 10.888 0.17-3.136-1.398-7.369-4.215-11.729-3.117-4.357 1.092-6.596 5.576-8.55 8.232" fill="#F37024"/>
	<path d="m148.77 46.608c-11.336 0-17.713-8.538-17.713-17.744 0-9.203 6.593-17.54 17.768-17.54 4.632 0 7.521 0.971 10.192 2.557l-2.128 3.018c-2.124-1.382-4.741-2.251-8.173-2.251-8.723 0-13.192 6.751-13.192 14.113 0 7.465 4.305 14.472 13.353 14.472 3.924 0 6.76-1.228 8.884-2.916l1.964 2.863c-1.907 1.638-5.887 3.428-10.955 3.428" fill="#F37024"/>
	<path d="m180.93 22.525c-1.144-2.863-1.636-4.295-2.236-5.882h-0.108c-0.6 1.688-1.2 3.275-2.236 5.882l-4.632 11.658h13.792l-4.58-11.658zm-13.9 23.471h-4.196l13.9-34.056h4.141l13.956 34.056h-4.635l-3.324-8.439h-16.516l-3.326 8.439z" fill="#F37024"/>
<polygon points="201.1 45.996 201.1 11.94 205.35 11.94 205.35 42.619 219.63 42.619 219.63 45.996" fill="#F37024"/>
<rect x="227.21" y="11.94" width="4.252" height="34.056" fill="#F37024"/>
<g fill="#7D7E80">
	<path d="m249.72 46.608c-5.56 0-8.992-2.301-10.304-3.476l2.183-2.863c0.816 0.714 3.432 3.015 8.284 3.015 4.468 0 7.412-2.758 7.412-5.776 0-4.144-4.144-5.882-8.34-7.824-4.416-2.047-8.448-4.246-8.448-9.667 0-5.572 5.016-8.693 10.573-8.693 5.399 0 8.343 1.84 9.54 2.712l-2.069 2.966c-1.255-0.922-3.708-2.353-7.524-2.353-3.596 0-6.324 2.047-6.324 5.164 0 3.377 2.944 4.96 6.543 6.546 4.793 2.146 10.353 4.45 10.353 11.095 1e-3 5.372-4.848 9.154-11.879 9.154"/>
	<path d="m278.12 15.314h-4.413v13.551h4.252c6.376 0 8.992-2.452 8.992-6.955 1e-3 -3.884-2.396-6.596-8.831-6.596m-0.16 16.927h-4.252v13.755h-4.252v-34.056h9.104c7.304 0 12.756 3.272 12.756 9.818-1e-3 6.698-4.908 10.483-13.356 10.483"/>
</g>
<polygon points="323.8 45.996 323.8 29.736 303.25 29.736 303.25 45.996 299 45.996 299 11.94 303.25 11.94 303.25 26.359 323.8 26.359 323.8 11.94 328.05 11.94 328.05 45.996" fill="#7D7E80"/>
<polygon points="338.52 45.996 338.52 11.94 357.16 11.94 357.16 15.314 342.77 15.314 342.77 26.257 355.41 26.257 355.41 29.631 342.77 29.631 342.77 42.619 357.54 42.619 357.54 45.996" fill="#7D7E80"/>
	<path d="m375.31 15.314h-5.121v11.711h5.449c5.396 0 7.848-2.146 7.848-5.931s-2.616-5.78-8.176-5.78m10.14 30.682l-7.304-9.664c-4.252-5.625-4.904-6.036-7.36-6.036h-0.597v15.7h-4.255v-34.056h9.868c7.576 0 12.045 3.324 12.045 9.051 0 5.674-4.413 8.59-10.192 8.897v0.102c0.708 0.461 1.691 1.484 3.816 4.246l8.992 11.76h-5.013z" fill="#7D7E80"/>
<polygon points="397.01 11.94 397.01 45.996 416.03 45.996 416.03 42.622 401.26 42.622 401.26 29.631 413.9 29.631 413.9 26.257 401.26 26.257 401.26 15.314 415.65 15.314 415.65 11.94" fill="#7D7E80"/>
<g fill="#7D7E80">
	<path d="m138.11 75.671c-3.766 0-5.452-1.88-5.452-5v-7.746h2.267v7.539c0 2.332 0.962 3.439 3.244 3.439 2.165 0 3.126-1.277 3.126-3.231v-7.746h2.106v7.574c0 3.253-1.723 5.171-5.291 5.171"/>
	<path d="m157.21 75.444l-5.814-7.839c-0.622-0.829-1.16-1.713-1.181-1.75h-0.04c0 0.037 0.08 0.81 0.08 1.525v8.065h-2.066v-12.522h2.267l5.47 7.369c0.721 0.977 1.302 1.936 1.342 1.995h0.04c0-0.077-0.08-0.884-0.08-1.843v-7.521h2.066v12.521h-2.084z"/>
</g>
<rect x="164.24" y="62.923" width="2.267" height="12.521" fill="#7D7E80"/>
	<path d="m177.37 75.444h-2.165l-5.152-12.521h2.446l3.086 8.009c0.362 0.959 0.742 2.124 0.742 2.124h0.04s0.362-1.166 0.721-2.124l2.987-8.009h2.264l-4.969 12.521z" fill="#7D7E80"/>
<polygon points="185.72 75.444 185.72 62.923 193.04 62.923 193.04 64.689 187.97 64.689 187.97 68.038 192.44 68.038 192.44 69.73 187.97 69.73 187.97 73.679 193.18 73.679 193.18 75.444" fill="#7D7E80"/>
<g fill="#7D7E80">
	<path d="m201.23 64.596h-1.623v3.834h1.744c1.722 0 2.505-0.696 2.505-1.936 0-1.239-0.82-1.898-2.626-1.898m3.368 10.848l-2.545-3.553c-1.262-1.747-1.503-1.88-2.264-1.88h-0.182v5.433h-2.264v-12.521h4.069c2.984 0 4.71 1.24 4.71 3.479 0 2.066-1.543 3.12-3.389 3.327v0.037c0.322 0.207 0.724 0.659 1.484 1.691l2.925 3.986h-2.544z"/>
	<path d="m213.52 75.671c-2.106 0-3.448-0.81-3.967-1.262l1.02-1.484c0.3 0.226 1.283 1.014 2.947 1.014 1.481 0 2.384-0.807 2.384-1.747 0-1.296-1.463-1.769-3.006-2.483-1.645-0.77-2.987-1.633-2.987-3.664 0-2.106 1.883-3.349 4.128-3.349 2.084 0 3.228 0.68 3.729 1.036l-0.983 1.503c-0.461-0.3-1.401-0.807-2.666-0.807-1.203 0-2.022 0.581-2.022 1.577 0 1.092 1.061 1.525 2.424 2.109 1.763 0.77 3.609 1.617 3.609 3.986 1e-3 2.142-1.805 3.571-4.61 3.571"/>
</g>
<rect x="222.22" y="62.923" width="2.264" height="12.521" fill="#7D7E80"/>
<polygon points="234.08 64.69 234.08 75.445 231.79 75.445 231.79 64.69 228.06 64.69 228.06 62.924 237.78 62.924 237.78 64.69" fill="#7D7E80"/>
<polygon points="246.82 70.706 246.82 75.444 244.55 75.444 244.55 70.706 240.1 62.923 242.62 62.923 245.77 68.733 245.8 68.733 248.94 62.923 251.14 62.923" fill="#7D7E80"/>
	<path d="m265.93 64.427c-2.907 0-4.388 2.162-4.388 4.719s1.441 4.793 4.329 4.793c2.925 0 4.366-2.199 4.366-4.737 0-2.558-1.401-4.775-4.307-4.775m0 11.244c-4.311 0-6.775-3.064-6.775-6.469 0-3.42 2.406-6.506 6.717-6.506 4.329 0 6.754 3.049 6.754 6.451-2e-3 3.419-2.389 6.524-6.696 6.524" fill="#7D7E80"/>
<polygon points="278.92 64.69 278.92 68.169 283.39 68.169 283.39 69.879 278.92 69.879 278.92 75.445 276.65 75.445 276.65 62.924 284.01 62.924 284.01 64.69" fill="#7D7E80"/>
<g fill="#7D7E80">
	<path d="m299.3 75.671c-4.388 0-6.695-3.12-6.695-6.506 0-3.405 2.387-6.469 6.735-6.469 1.722 0 2.867 0.359 3.89 0.98l-1.064 1.559c-0.761-0.47-1.645-0.77-2.885-0.77-2.808 0-4.289 2.143-4.289 4.626 0 2.557 1.422 4.793 4.348 4.793 1.444 0 2.406-0.451 3.126-0.996l0.983 1.484c-0.701 0.603-2.244 1.299-4.149 1.299"/>
	<path d="m312.6 67.454c-0.399-1.051-0.541-1.503-0.761-2.162h-0.04c-0.22 0.677-0.362 1.126-0.764 2.162l-1.379 3.572h4.329l-1.385-3.572zm-4.63 7.99h-2.264l5.09-12.521h2.183l5.192 12.521h-2.465l-1.042-2.687h-5.653l-1.041 2.687z"/>
</g>
<polygon points="321.6 75.444 321.6 62.923 323.86 62.923 323.86 73.716 328.95 73.716 328.95 75.444" fill="#7D7E80"/>
<rect x="332.92" y="62.923" width="2.267" height="12.521" fill="#7D7E80"/>
<polygon points="342.48 64.69 342.48 68.169 346.95 68.169 346.95 69.879 342.48 69.879 342.48 75.445 340.21 75.445 340.21 62.924 347.57 62.924 347.57 64.69" fill="#7D7E80"/>
<g fill="#7D7E80">
	<path d="m357.36 64.427c-2.907 0-4.388 2.162-4.388 4.719s1.441 4.793 4.329 4.793c2.922 0 4.366-2.199 4.366-4.737 1e-3 -2.558-1.4-4.775-4.307-4.775m0 11.244c-4.311 0-6.775-3.064-6.775-6.469 0-3.42 2.406-6.506 6.717-6.506 4.329 0 6.754 3.049 6.754 6.451-1e-3 3.419-2.388 6.524-6.696 6.524"/>
	<path d="m371.97 64.596h-1.623v3.834h1.744c1.725 0 2.505-0.696 2.505-1.936-1e-3 -1.239-0.82-1.898-2.626-1.898m3.368 10.848l-2.545-3.553c-1.262-1.747-1.503-1.88-2.264-1.88h-0.182v5.433h-2.264v-12.521h4.066c2.987 0 4.713 1.24 4.713 3.479 0 2.066-1.543 3.12-3.389 3.327v0.037c0.322 0.207 0.724 0.659 1.484 1.691l2.925 3.986h-2.544z"/>
	<path d="m390.31 75.444l-5.81-7.839c-0.622-0.829-1.163-1.713-1.184-1.75h-0.04c0 0.037 0.08 0.81 0.08 1.525v8.065h-2.063v-12.522h2.264l5.47 7.369c0.724 0.977 1.305 1.936 1.345 1.995h0.037c0-0.077-0.077-0.884-0.077-1.843v-7.521h2.063v12.521h-2.085z"/>
</g>
<rect x="397.34" y="62.923" width="2.267" height="12.521" fill="#7D7E80"/>
	<path d="m410.1 67.454c-0.402-1.051-0.541-1.503-0.761-2.162h-0.04c-0.22 0.677-0.362 1.126-0.761 2.162l-1.382 3.572h4.329l-1.385-3.572zm-4.629 7.99h-2.264l5.09-12.521h2.183l5.192 12.521h-2.465l-1.042-2.687h-5.653l-1.041 2.687z" fill="#7D7E80"/>
</svg>
